{"title":"Jab We Met (2007) BRRip x264 Subs RmD","uid":6084371,"size":2742104444,"categoryP":"video","categoryS":"hd___movies","magnet":"?xt=urn:btih:573ea0f63895e81d1ec07db67d3b95adf148cf69&amp;dn=Jab+We+Met+%282007%29+BRRip+x264+Subs+RmD&amp;tr=udp%3A%2F%2Ftracker.openbittorrent.com%3A80&amp;tr=udp%3A%2F%2Fopen.demonii.com%3A1337&amp;tr=udp%3A%2F%2Ftracker.coppersurfer.tk%3A6969&amp;tr=udp%3A%2F%2Fexodus.desync.com%3A6969","seeders":0,"leechers":1,"uploader":"RajMahal","files":-1,"time":1294256287,"description":"General\n\nFormat                           : Matroska\nFile size                        : 2.55 GiB\nDuration                         : 2h 23mn\nOverall bit rate                 : 2 545 Kbps\nEncoded date                     : UTC 2011-01-04 11:45:34\nWriting application              : mkvmerge v4.3.0 (\\'Escape from the Island\\') built on Sep  5 2010 10:30:51\nWriting library                  : libebml v1.0.0 + libmatroska v1.0.0\n\nVideo\n\nID                               : 1\nFormat                           : AVC\nFormat/Info                      : Advanced Video Codec\nFormat profile                   : &lt;a class=&quot;__cf_email__&quot; href=&quot;/cdn-cgi/l/email-protection&quot; data-cfemail=&quot;bff7d6d8d7fff38b918e&quot;&gt;[email&amp;#160;protected]&lt;/a&gt;&lt;script cf-hash='f9e31' type=&quot;text/javascript&quot;&gt;\n/* &lt;![CDATA[ */!function(){try{var t=&quot;currentScript&quot;in document?document.currentScript:function(){for(var t=document.getElementsByTagName(&quot;script&quot;),e=t.length;e--;)if(t[e].getAttribute(&quot;cf-hash&quot;))return t[e]}();if(t&amp;&amp;t.previousSibling){var e,r,n,i,c=t.previousSibling,a=c.getAttribute(&quot;data-cfemail&quot;);if(a){for(e=&quot;&quot;,r=parseInt(a.substr(0,2),16),n=2;a.length-n;n+=2)i=parseInt(a.substr(n,2),16)^r,e+=String.fromCharCode(i);e=document.createTextNode(e),c.parentNode.replaceChild(e,c)}}}catch(u){}}();/* ]]&gt; */&lt;/script&gt;\nFormat settings, CABAC           : Yes\nFormat settings, ReFrames        : 3 frames\nMuxing mode                      : Header stripping\nCodec ID                         : V_MPEG4/ISO/AVC\nDuration                         : 2h 23mn\nBit rate mode                    : Variable\nBit rate                         : 2 111 Kbps\nMaximum bit rate                 : 10 000 Kbps\nWidth                            : 928 pixels\nHeight                           : 400 pixels\nDisplay aspect ratio             : 2.35:1\nFrame rate                       : 24.000 fps\nColor space                      : YUV\nChroma subsampling               : 4:2:0\nBit depth                        : 8 bits\nScan type                        : Progressive\nBits/(Pixel*Frame)               : 0.237\nStream size                      : 2.12 GiB (83%)\n\n\nAudio\n\nID                               : 2\nFormat                           : AC-3\nFormat/Info                      : Audio Coding 3\nMode extension                   : CM (complete main)\nMuxing mode                      : Header stripping\nCodec ID                         : A_AC3\nDuration                         : 2h 23mn\nBit rate mode                    : Constant\nBit rate                         : 384 Kbps\nChannel(s)                       : 6 channels\nChannel positions                : Front: L C R, Side: L R, LFE\nSampling rate                    : 48.0 KHz\nBit depth                        : 16 bits\nCompression mode                 : Lossy\nStream size                      : 394 MiB (15%)\n\nText\n\nID                               : 3\nFormat                           : UTF-8\nCodec ID                         : S_TEXT/UTF8\nCodec ID/Info                    : UTF-8 Plain Text\nLanguage                         : English\n\n\nScreenshots :\n\n &lt;a href=&quot;\nhttp://img832.imageshack.us/img832/7668/vlcsnap2011010519h28m44.png&quot; rel=&quot;nofollow&quot; target=&quot;_NEW&quot;&gt;\nhttp://img832.imageshack.us/img832/7668/vlcsnap2011010519h28m44.png&lt;/a&gt; &lt;a href=&quot;\nhttp://img444.imageshack.us/img444/8530/vlcsnap2011010519h30m23.png&quot; rel=&quot;nofollow&quot; target=&quot;_NEW&quot;&gt;\nhttp://img444.imageshack.us/img444/8530/vlcsnap2011010519h30m23.png&lt;/a&gt; &lt;a href=&quot;\nhttp://img836.imageshack.us/img836/5281/vlcsnap2011010519h30m49.png&quot; rel=&quot;nofollow&quot; target=&quot;_NEW&quot;&gt;\nhttp://img836.imageshack.us/img836/5281/vlcsnap2011010519h30m49.png&lt;/a&gt; &lt;a href=&quot;\nhttp://img267.imageshack.us/img267/2760/vlcsnap2011010519h30m59.png&quot; rel=&quot;nofollow&quot; target=&quot;_NEW&quot;&gt;\nhttp://img267.imageshack.us/img267/2760/vlcsnap2011010519h30m59.png&lt;/a&gt; &lt;a href=&quot;\nhttp://img207.imageshack.us/img207/1536/vlcsnap2011010519h31m28.png&quot; rel=&quot;nofollow&quot; target=&quot;_NEW&quot;&gt;\nhttp://img207.imageshack.us/img207/1536/vlcsnap2011010519h31m28.png&lt;/a&gt; &lt;a href=&quot;\nhttp://img46.imageshack.us/img46/6006/vlcsnap2011010519h32m34.png&quot; rel=&quot;nofollow&quot; target=&quot;_NEW&quot;&gt;\nhttp://img46.imageshack.us/img46/6006/vlcsnap2011010519h32m34.png&lt;/a&gt; &lt;a href=&quot;\nhttp://img148.imageshack.us/img148/4347/vlcsnap2011010519h32m50.png&quot; rel=&quot;nofollow&quot; target=&quot;_NEW&quot;&gt;\nhttp://img148.imageshack.us/img148/4347/vlcsnap2011010519h32m50.png&lt;/a&gt; &lt;a href=&quot;\nhttp://img714.imageshack.us/img714/7011/vlcsnap2011010519h33m40.png&quot; rel=&quot;nofollow&quot; target=&quot;_NEW&quot;&gt;\nhttp://img714.imageshack.us/img714/7011/vlcsnap2011010519h33m40.png&lt;/a&gt;\n","torrent":{"xt":"urn:btih:573ea0f63895e81d1ec07db67d3b95adf148cf69","amp;dn":"Jab+We+Met+%282007%29+BRRip+x264+Subs+RmD","amp;tr":["udp%3A%2F%2Ftracker.openbittorrent.com%3A80","udp%3A%2F%2Fopen.demonii.com%3A1337","udp%3A%2F%2Ftracker.coppersurfer.tk%3A6969","udp%3A%2F%2Fexodus.desync.com%3A6969"],"infoHash":"573ea0f63895e81d1ec07db67d3b95adf148cf69","infoHashBuffer":{"type":"Buffer","data":[87,62,160,246,56,149,232,29,30,192,125,182,125,59,149,173,241,72,207,105]},"announce":[],"urlList":[]}}